<svg xmlns="http://www.w3.org/2000/svg" version="1.1" xmlns:xlink="http://www.w3.org/1999/xlink" width="512" height="512" x="0" y="0" viewBox="0 0 32 32" style="enable-background:new 0 0 512 512" xml:space="preserve"><g><path d="M26.61 5.39C23.78 2.56 20.01 1 16 1S8.23 2.56 5.39 5.39 1 11.99 1 16s1.56 7.77 4.39 10.61S11.99 31 16 31s7.77-1.56 10.61-4.39S31 20.01 31 16s-1.56-7.77-4.39-10.61zM29 16c0 .14-.02.27-.02.41-2.46-.97-4.82-2.44-6.93-4.32 1.29-1.68 2.41-3.37 3.35-5.05C27.72 9.47 29 12.63 29 16zM23.87 5.67c-.89 1.64-1.99 3.33-3.27 5.02-2.2-2.29-3.92-4.91-5.01-7.66.14 0 .27-.02.41-.02 2.88 0 5.62.95 7.87 2.67zm-11.6 13.68c-2.67-2.61-5.77-4.6-9.03-5.8.42-2.21 1.42-4.27 2.9-6l9.12 9.12c-.98.94-1.98 1.84-2.99 2.67zM7.55 6.14c1.73-1.49 3.78-2.48 6-2.9 1.2 3.26 3.19 6.37 5.8 9.03-.84 1.02-1.73 2.02-2.67 2.99zm-4.53 9.45c2.75 1.09 5.37 2.81 7.66 5.01-1.68 1.28-3.37 2.38-5.02 3.27A12.915 12.915 0 0 1 2.99 16c0-.14.02-.27.02-.41zm4.02 9.81c1.68-.94 3.37-2.06 5.05-3.35 1.88 2.11 3.35 4.47 4.32 6.93-.14 0-.27.02-.41.02-3.37 0-6.53-1.28-8.96-3.6zm18.15-.21c-1.87 1.87-4.2 3.09-6.74 3.57-1.04-2.84-2.68-5.55-4.81-7.96 1.02-.85 2.03-1.76 3.02-2.72l2.86 2.86c.2.2.45.29.71.29s.51-.1.71-.29a.996.996 0 0 0 0-1.41l-2.86-2.86c.96-.99 1.87-2 2.72-3.02 2.41 2.13 5.13 3.76 7.96 4.81-.48 2.54-1.71 4.87-3.57 6.74z" fill="#ffffff" opacity="1" data-original="#000000"></path><path d="M23.42 22.01a.996.996 0 1 0-1.41 1.41l.71.71c.2.2.45.29.71.29s.51-.1.71-.29a.996.996 0 0 0 0-1.41l-.71-.71z" fill="#ffffff" opacity="1" data-original="#000000"></path></g></svg>