<svg xmlns="http://www.w3.org/2000/svg" version="1.1" xmlns:xlink="http://www.w3.org/1999/xlink" width="512" height="512" x="0" y="0" viewBox="0 0 682.667 682.667" style="enable-background:new 0 0 512 512" xml:space="preserve" class=""><g><defs><clipPath id="a" clipPathUnits="userSpaceOnUse"><path d="M0 512h512V0H0Z" fill="#ffffff" opacity="1" data-original="#000000" class=""></path></clipPath></defs><g clip-path="url(#a)" transform="matrix(1.33333 0 0 -1.33333 0 682.667)"><path d="M0 0v0c-103.878 0-197.903 61.494-239.54 156.663L-241 160v160h482V160l-1.46-3.337C197.903 61.494 103.878 0 0 0Z" style="stroke-width:30;stroke-linecap:round;stroke-linejoin:round;stroke-miterlimit:10;stroke-dasharray:none;stroke-opacity:1" transform="translate(256 96)" fill="none" stroke="#ffffff" stroke-width="30" stroke-linecap="round" stroke-linejoin="round" stroke-miterlimit="10" stroke-dasharray="none" stroke-opacity="" data-original="#000000" opacity="1" class=""></path><path d="M0 0v-87.004C-33.669-155.926-103.803-200-181-200s-147.332 44.075-181 112.996V0M0 0l60 60" style="stroke-width:30;stroke-linecap:round;stroke-linejoin:round;stroke-miterlimit:10;stroke-dasharray:none;stroke-opacity:1" transform="translate(437 356)" fill="none" stroke="#ffffff" stroke-width="30" stroke-linecap="round" stroke-linejoin="round" stroke-miterlimit="10" stroke-dasharray="none" stroke-opacity="" data-original="#000000" opacity="1" class=""></path><path d="m0 0-60 60" style="stroke-width:30;stroke-linecap:round;stroke-linejoin:round;stroke-miterlimit:10;stroke-dasharray:none;stroke-opacity:1" transform="translate(75 356)" fill="none" stroke="#ffffff" stroke-width="30" stroke-linecap="round" stroke-linejoin="round" stroke-miterlimit="10" stroke-dasharray="none" stroke-opacity="" data-original="#000000" opacity="1" class=""></path><path d="M0 0c0-8.284-6.716-15-15-15-8.284 0-15 6.716-15 15 0 8.284 6.716 15 15 15C-6.716 15 0 8.284 0 0" style="fill-opacity:1;fill-rule:nonzero;stroke:none" transform="translate(271 216)" fill="#ffffff" data-original="#000000" opacity="1" class=""></path><path d="M0 0c4.143-7.175 1.685-16.349-5.49-20.49-7.175-4.143-16.349-1.685-20.49 5.49-4.143 7.174-1.685 16.348 5.49 20.49C-13.315 9.632-4.142 7.174 0 0" style="fill-opacity:1;fill-rule:nonzero;stroke:none" transform="translate(328.99 239.577)" fill="#ffffff" data-original="#000000" opacity="1" class=""></path><path d="M0 0c7.175-4.142 9.633-13.315 5.49-20.49C1.349-27.665-7.825-30.123-15-25.98c-7.174 4.141-9.632 13.315-5.49 20.49C-16.348 1.685-7.174 4.143 0 0" style="fill-opacity:1;fill-rule:nonzero;stroke:none" transform="translate(367.423 288.99)" fill="#ffffff" data-original="#000000" opacity="1" class=""></path><path d="M0 0c8.284 0 15-6.716 15-15 0-8.284-6.716-15-15-15-8.284 0-15 6.716-15 15C-15-6.716-8.284 0 0 0" style="fill-opacity:1;fill-rule:nonzero;stroke:none" transform="translate(376 351)" fill="#ffffff" data-original="#000000" opacity="1" class=""></path><path d="M0 0c-8.284 0-15-6.716-15-15 0-8.284 6.716-15 15-15 8.284 0 15 6.716 15 15C15-6.716 8.284 0 0 0" style="fill-opacity:1;fill-rule:nonzero;stroke:none" transform="translate(136 351)" fill="#ffffff" data-original="#000000" opacity="1" class=""></path><path d="M0 0c-7.175-4.142-9.633-13.315-5.49-20.49 4.141-7.175 13.315-9.633 20.49-5.49 7.174 4.141 9.632 13.315 5.49 20.49C16.348 1.685 7.174 4.143 0 0" style="fill-opacity:1;fill-rule:nonzero;stroke:none" transform="translate(144.577 288.99)" fill="#ffffff" data-original="#000000" opacity="1" class=""></path><path d="M0 0c-4.143-7.175-1.685-16.349 5.49-20.49 7.175-4.143 16.349-1.685 20.49 5.49 4.143 7.174 1.685 16.348-5.49 20.49C13.315 9.632 4.142 7.174 0 0" style="fill-opacity:1;fill-rule:nonzero;stroke:none" transform="translate(183.01 239.577)" fill="#ffffff" data-original="#000000" opacity="1" class=""></path><path d="M0 0h120" style="stroke-width:30;stroke-linecap:round;stroke-linejoin:round;stroke-miterlimit:10;stroke-dasharray:none;stroke-opacity:1" transform="translate(196 356)" fill="none" stroke="#ffffff" stroke-width="30" stroke-linecap="round" stroke-linejoin="round" stroke-miterlimit="10" stroke-dasharray="none" stroke-opacity="" data-original="#000000" opacity="1" class=""></path></g></g></svg>