<svg xmlns="http://www.w3.org/2000/svg" version="1.1" xmlns:xlink="http://www.w3.org/1999/xlink" width="512" height="512" x="0" y="0" viewBox="0 0 32 32" style="enable-background:new 0 0 512 512" xml:space="preserve"><g><path d="M27 10h-2V7a3 3 0 0 0-3-3H5a3 3 0 0 0-3 3v20a3 3 0 0 0 3 3h21.5a3.5 3.5 0 0 0 3.5-3.5V13a3 3 0 0 0-3-3zM4 27V7a1 1 0 0 1 1-1h17a1 1 0 0 1 1 1v19.5a3.45 3.45 0 0 0 .35 1.5H5a1 1 0 0 1-1-1zm24-.5a1.5 1.5 0 0 1-3 0V12h2a1 1 0 0 1 1 1z" fill="#ffffff" opacity="1" data-original="#000000"></path><path d="M20 11H10a1 1 0 0 0 0 2h10a1 1 0 0 0 0-2zM20 16H7a1 1 0 0 0 0 2h13a1 1 0 0 0 0-2zM20 21H7a1 1 0 0 0 0 2h13a1 1 0 0 0 0-2z" fill="#ffffff" opacity="1" data-original="#000000"></path></g></svg>