<svg xmlns="http://www.w3.org/2000/svg" version="1.1" xmlns:xlink="http://www.w3.org/1999/xlink" width="512" height="512" x="0" y="0" viewBox="0 0 64 64" style="enable-background:new 0 0 512 512" xml:space="preserve" class=""><g><path d="M10.66 53.06c.04.05.08.1.13.15.04.04.09.08.14.11 0 0 .01.02.02.02 5.38 5.31 12.73 8.6 20.85 8.64.03.01.06.01.1.01.03.01.07.01.1.01s.07 0 .1-.01c.04 0 .07 0 .1-.01 8.16-.04 15.55-3.37 20.93-8.71.03-.02.05-.04.07-.06.05-.05.09-.1.13-.15C58.7 47.64 62 40.2 62 32v-.01c0-8.2-3.31-15.64-8.67-21.05a.864.864 0 0 0-.13-.14.12.12 0 0 0-.05-.05q0-.01-.01-.01C47.72 5.34 40.24 2 32 2s-15.63 3.3-21.05 8.65c0 0 0 .01-.01.01-.05.04-.1.08-.15.13s-.09.1-.13.15c0 .01-.01.01-.01.01C5.3 16.36 2 23.8 2 31.99V32c0 8.2 3.3 15.63 8.65 21.05 0 0 .01 0 .01.01zM33 59.96v-6.9c4.93-.22 9.55-2.13 13.19-5.44l4.87 4.86c-4.77 4.45-11.1 7.25-18.06 7.48zm19.48-47.03c4.45 4.77 7.25 11.1 7.49 18.06h-6.92c-.22-4.93-2.13-9.55-5.44-13.19zM31 4.02v6.91c-4.92.23-9.54 2.14-13.2 5.46l-4.87-4.87C17.7 7.07 24.03 4.26 31 4.02zM18.49 18.5c3.6-3.58 8.36-5.56 13.41-5.59h.02c.03.01.05.01.08.01s.05 0 .08-.01h.02c5.04.03 9.78 1.99 13.35 5.54l.01.01.04.04c.01.01.03.03.03.04 3.58 3.59 5.55 8.37 5.55 13.45s-1.98 9.9-5.58 13.51l-.01.01a19 19 0 0 1-13.39 5.58h-.02c-.03-.01-.05-.01-.08-.01s-.05 0-.08.01h-.02c-5.05-.03-9.81-2.01-13.41-5.59-3.6-3.61-5.58-8.41-5.58-13.51s1.98-9.89 5.58-13.49zm-7.55 14.49c.22 4.93 2.13 9.55 5.45 13.21l-4.87 4.87c-4.45-4.77-7.26-11.1-7.49-18.08z" fill="#ffffff" opacity="1" data-original="#000000" class=""></path><path d="M27.51 40.33c.88 0 1.76-.15 2.59-.46l-1.67 4.56c-.11.31-.07.65.12.92.19.26.49.42.82.42h5.26a1 1 0 0 0 .82-.42c.19-.27.23-.61.12-.92l-1.67-4.56c2.66.98 5.77.4 7.88-1.72 2.87-2.86 2.91-7.56.08-10.48l-9.15-9.15c-.38-.38-1.04-.38-1.42 0l-9.14 9.15q-.01 0-.02.01a7.459 7.459 0 0 0-2.1 5.19c.01 2 .78 3.88 2.19 5.28a7.464 7.464 0 0 0 5.29 2.18z" fill="#ffffff" opacity="1" data-original="#000000" class=""></path></g></svg>