<svg xmlns="http://www.w3.org/2000/svg" version="1.1" xmlns:xlink="http://www.w3.org/1999/xlink" width="512" height="512" x="0" y="0" viewBox="0 0 512 512" style="enable-background:new 0 0 512 512" xml:space="preserve" class=""><g><path d="M294.279 116.633c-12.405-3.4-25.284-5.124-38.279-5.124-79.673 0-144.491 64.818-144.491 144.491S176.327 400.491 256 400.491 400.491 335.673 400.491 256c0-12.995-1.724-25.874-5.124-38.279-2.336-8.522 2.679-17.324 11.201-19.66 8.517-2.335 17.324 2.679 19.66 11.201A176.852 176.852 0 0 1 432.491 256c0 97.317-79.174 176.491-176.491 176.491S79.509 353.317 79.509 256 158.683 79.509 256 79.509c15.853 0 31.577 2.107 46.738 6.263 7.107 1.948 11.775 8.394 11.774 15.424a16.04 16.04 0 0 1-.573 4.236c-2.335 8.522-11.136 13.54-19.66 11.201zm187.339 55.807c-8.473 2.509-13.309 11.41-10.8 19.884C476.911 212.904 480 234.327 480 256c0 123.514-100.486 224-224 224S32 379.514 32 256 132.486 32 256 32c21.674 0 43.097 3.089 63.673 9.181 8.474 2.51 17.375-2.328 19.884-10.8.448-1.515.662-3.042.662-4.545.002-6.905-4.503-13.278-11.462-15.339C305.229 3.531 280.751 0 256 0 187.62 0 123.332 26.629 74.98 74.98 26.629 123.333 0 187.62 0 256s26.629 132.668 74.98 181.02S187.62 512 256 512s132.667-26.629 181.02-74.98C485.371 388.668 512 324.38 512 256c0-24.749-3.532-49.229-10.498-72.76-2.508-8.473-11.412-13.305-19.884-10.8zM256 192c2.353 0 4.729.13 7.063.386 8.788.967 16.687-5.376 17.649-14.159.964-8.784-5.375-16.686-14.159-17.649A96.848 96.848 0 0 0 256 160c-52.935 0-96 43.065-96 96s43.065 96 96 96 96-43.065 96-96c0-8.837-7.163-16-16-16s-16 7.163-16 16c0 35.29-28.71 64-64 64s-64-28.71-64-64 28.71-64 64-64zm81.694-40.319 7.97-79.947a15.995 15.995 0 0 1 4.607-9.727l57.323-57.321a16.001 16.001 0 0 1 27.265 10.061l4.545 57.85 57.849 4.544a16 16 0 0 1 10.061 27.265l-57.322 57.321a15.992 15.992 0 0 1-9.726 4.607l-79.945 7.974-93.007 93.006A15.952 15.952 0 0 1 256 272a15.943 15.943 0 0 1-11.313-4.687c-6.249-6.248-6.249-16.379 0-22.627zm33.214-10.587 60.496-6.034 28.735-28.735-36.868-2.896a16.002 16.002 0 0 1-14.698-14.698l-2.896-36.871-28.737 28.736z" fill="#ffffff" opacity="1" data-original="#000000" class=""></path></g></svg>