<svg xmlns="http://www.w3.org/2000/svg" version="1.1" xmlns:xlink="http://www.w3.org/1999/xlink" width="512" height="512" x="0" y="0" viewBox="0 0 512 512" style="enable-background:new 0 0 512 512" xml:space="preserve"><g><path d="M378.011 223.207c12.306-8.247 21.13-20.55 25.02-35.069 4.253-15.87 2.096-32.402-6.073-46.551s-21.407-24.283-37.277-28.536c-14.519-3.89-29.586-2.4-42.881 4.134l-34.256-59.333c-7.292-12.631-20.39-19.993-34.932-19.745-14.581.267-27.36 8.12-34.188 21.007-4.794 9.054-9.297 18.459-14.064 28.417-19.429 40.585-41.45 86.585-89.057 114.071L49.13 236.92c-21.057 12.157-36.14 31.865-42.472 55.494-6.331 23.629-3.123 48.239 9.034 69.295 16.901 29.274 47.671 45.658 79.268 45.658a90.712 90.712 0 0 0 34.269-6.712l42.765 74.072c8.848 15.324 24.952 23.899 41.492 23.899a47.535 47.535 0 0 0 23.829-6.397c11.027-6.367 18.925-16.682 22.238-29.046 3.312-12.364 1.631-25.246-4.736-36.274l-42.08-72.885c44.303-21.062 90.806-17.488 132.209-14.288 11.017.852 21.422 1.656 31.668 2.031 14.554.521 27.766-6.608 35.286-19.104 7.521-12.495 7.658-27.494.366-40.125l-34.256-59.334zm-24.801-86.008c9.42 2.524 17.268 8.521 22.098 16.888 9.325 16.151 4.806 36.551-9.84 47.393l-36.123-62.567c7.477-3.247 15.807-3.874 23.866-1.714zM94.919 382.374c-22.948-.002-45.3-11.902-57.575-33.164-8.818-15.273-11.14-33.146-6.536-50.325 4.603-17.179 15.55-31.496 30.823-40.314l50.353-29.071 66.414 114.891-50.414 29.107c-10.424 6.018-21.813 8.877-33.064 8.876zm140.487 74.34c-1.584 5.914-5.346 10.838-10.59 13.866-10.896 6.29-24.879 2.545-31.171-8.352l-42.337-73.33 39.522-22.818 42.337 73.33c3.028 5.245 3.823 11.39 2.238 17.304zm155.076-146.942c-2.843 4.724-7.427 7.226-12.953 7.013-9.739-.356-19.898-1.142-30.655-1.973-45.182-3.491-95.984-7.406-146.61 17.451L133.42 216.628c46.896-31.448 68.916-77.414 88.49-118.301 4.654-9.723 9.051-18.907 13.607-27.511 2.581-4.873 7.039-7.612 12.552-7.712l.312-.003c5.372 0 9.808 2.567 12.513 7.252l129.724 224.689c2.757 4.775 2.71 10.007-.135 14.731zM358.011 64.337l25.814-44.712c3.452-5.979 11.096-8.028 17.075-4.575 5.979 3.452 8.027 11.097 4.575 17.075l-25.814 44.712a12.495 12.495 0 0 1-17.075 4.575c-5.979-3.452-8.027-11.097-4.575-17.075zm116.053 47.166-45.794 26.44a12.496 12.496 0 0 1-17.075-4.575c-3.452-5.979-1.403-13.624 4.575-17.075l45.794-26.44c5.977-3.453 13.623-1.403 17.075 4.575s1.403 13.624-4.575 17.075zm34.45 89.938c0 6.903-5.597 12.5-12.5 12.5h-51.63c-6.903 0-12.5-5.596-12.5-12.5s5.597-12.5 12.5-12.5h51.63c6.903 0 12.5 5.596 12.5 12.5z" fill="#ffffff" opacity="1" data-original="#000000"></path></g></svg>