<svg xmlns="http://www.w3.org/2000/svg" version="1.1" xmlns:xlink="http://www.w3.org/1999/xlink" width="512" height="512" x="0" y="0" viewBox="0 0 24 24" style="enable-background:new 0 0 512 512" xml:space="preserve" class=""><g><path d="M22 4.5V8a1 1 0 0 1-2 0V4.5c0-.449-.052-.5-.5-.5H16a1 1 0 0 1 0-2h3.5A2.32 2.32 0 0 1 22 4.5zM8 2H4.5A2.32 2.32 0 0 0 2 4.5V8a1 1 0 0 0 2 0V4.5c0-.449.052-.5.5-.5H8a1 1 0 0 0 0-2zm0 18H4.5c-.448 0-.5-.051-.5-.5V16a1 1 0 0 0-2 0v3.5A2.32 2.32 0 0 0 4.5 22H8a1 1 0 0 0 0-2zm13-5a1 1 0 0 0-1 1v3.5c0 .449-.052.5-.5.5H16a1 1 0 0 0 0 2h3.5a2.32 2.32 0 0 0 2.5-2.5V16a1 1 0 0 0-1-1z" fill="#ffffff" opacity="1" data-original="#000000"></path></g></svg>