<svg xmlns="http://www.w3.org/2000/svg" version="1.1" xmlns:xlink="http://www.w3.org/1999/xlink" width="512" height="512" x="0" y="0" viewBox="0 0 682.667 682.667" style="enable-background:new 0 0 512 512" xml:space="preserve"><g><defs><clipPath id="a" clipPathUnits="userSpaceOnUse"><path d="M0 512h512V0H0Z" fill="#ffffff" opacity="1" data-original="#000000"></path></clipPath></defs><g clip-path="url(#a)" transform="matrix(1.33333 0 0 -1.33333 0 682.667)"><path d="M0 0a29.845 29.845 0 0 1 4.024 15.001c0 16.568-13.431 30-30 30-11.104 0-20.792-6.038-25.979-15.005z" style="fill-opacity:1;fill-rule:nonzero;stroke:none" transform="translate(327.691 286.715)" fill="#ffffff" data-original="#000000" opacity="1"></path><path d="M0 0h87.439c23.089 0 41.807 18.718 41.807 41.807v209.044c0 23.088-18.718 41.806-41.807 41.806h-209.043c-23.089 0-41.807-18.718-41.807-41.806V148.639" style="stroke-width:20;stroke-linecap:round;stroke-linejoin:round;stroke-miterlimit:10;stroke-dasharray:none;stroke-opacity:1" transform="translate(372.754 209.343)" fill="none" stroke="#ffffff" stroke-width="20" stroke-linecap="round" stroke-linejoin="round" stroke-miterlimit="10" stroke-dasharray="none" stroke-opacity="" data-original="#000000" opacity="1"></path><path d="M0 0c0-16.568 13.432-30 30-30 16.568 0 30 13.432 30 30 0 16.568-13.432 30-30 30C13.432 30 0 16.568 0 0" style="fill-opacity:1;fill-rule:nonzero;stroke:none" transform="translate(379.627 409.627)" fill="#ffffff" data-original="#000000" opacity="1"></path><path d="M0 0c0-16.568-13.432-30-30-30-16.568 0-30 13.432-30 30 0 16.568 13.432 30 30 30C-13.432 30 0 16.568 0 0" style="fill-opacity:1;fill-rule:nonzero;stroke:none" transform="translate(331.716 409.627)" fill="#ffffff" data-original="#000000" opacity="1"></path><path d="M0 0c0 16.568 13.432 30 30 30 16.568 0 30-13.432 30-30 0-16.568-13.432-30-30-30C13.432-30 0-16.568 0 0" style="fill-opacity:1;fill-rule:nonzero;stroke:none" transform="translate(379.627 301.716)" fill="#ffffff" data-original="#000000" opacity="1"></path><path d="m0 0 181.038-104.521c19.995-11.545 45.564-4.695 57.108 15.301L342.669 91.818c11.544 19.995 4.693 45.564-15.303 57.109L146.328 253.449c-19.995 11.544-45.563 4.694-57.108-15.303L-15.302 57.108C-26.847 37.113-19.996 11.545 0 0Z" style="stroke-width:20;stroke-linecap:round;stroke-linejoin:round;stroke-miterlimit:10;stroke-dasharray:none;stroke-opacity:1" transform="translate(30.91 120.13)" fill="none" stroke="#ffffff" stroke-width="20" stroke-linecap="round" stroke-linejoin="round" stroke-miterlimit="10" stroke-dasharray="none" stroke-opacity="" data-original="#000000" opacity="1"></path><path d="M0 0c0 24.421-19.798 44.219-44.219 44.219-24.422 0-44.219-19.798-44.219-44.219 0-24.422 19.797-44.22 44.219-44.22C-19.798-44.22 0-24.422 0 0" style="fill-opacity:1;fill-rule:nonzero;stroke:none" transform="translate(238.813 194.594)" fill="#ffffff" data-original="#000000" opacity="1"></path></g></g></svg>