<svg xmlns="http://www.w3.org/2000/svg" version="1.1" xmlns:xlink="http://www.w3.org/1999/xlink" width="512" height="512" x="0" y="0" viewBox="0 0 100 100" style="enable-background:new 0 0 512 512" xml:space="preserve" class=""><g><path d="M76.84 74.73H23.16A17.87 17.87 0 0 1 5.31 56.88v-33A17.87 17.87 0 0 1 23.16 6h53.68a17.87 17.87 0 0 1 17.85 17.85v33a17.87 17.87 0 0 1-17.85 17.88zM23.16 12.79A11.07 11.07 0 0 0 12.1 23.85v33a11.07 11.07 0 0 0 11.06 11.09h53.68A11.07 11.07 0 0 0 87.9 56.88v-33a11.07 11.07 0 0 0-11.06-11.09zM31.16 94a3.39 3.39 0 0 1-1.85-6.24c21.3-13.82 40.67-.5 41.49.07a3.4 3.4 0 0 1-3.91 5.55c-.65-.46-16.51-11.2-33.88.07a3.37 3.37 0 0 1-1.85.55z" fill="#ffffff" opacity="1" data-original="#000000" class=""></path></g></svg>